C:\Users\Nicos\Documents\OpenSimProjects\SprintingProject\Study1\PredictiveResults\IC_pred_Sprinting_optimum_28-October-2023__09-53-48_p02_maxVel_01___HTD_Minus_6_GRF.mot
version=1
nRows=118
nColumns=10
inDegrees=yes
endheader
time	ground_force_vx	ground_force_vy	ground_force_vz	ground_force_px	ground_force_py	ground_force_pz	ground_torque_x	ground_torque_y	ground_torque_z
0.056000	-26.052990	21.515123	-1.075454	0.303353	0.000000	0.408889	-8.797300	-10.297386	6.526680
0.056610	-53.120182	44.011868	-1.907763	0.304358	0.000000	0.408798	-17.991977	-21.080249	13.395383
0.058537	-230.515803	193.479394	-2.618883	0.302575	0.000000	0.411016	-79.523035	-93.682600	58.541984
0.059934	-448.242160	383.278471	-6.093835	0.297919	0.000000	0.412984	-158.287876	-182.664504	114.185990
0.060544	-560.578849	488.403153	-12.886770	0.295854	0.000000	0.413491	-201.950492	-227.135140	144.495913
0.062471	-917.219985	907.129031	-57.081518	0.290159	0.000000	0.414748	-376.230300	-361.664248	263.211785
0.063867	-1097.667759	1259.761141	-95.277857	0.287260	0.000000	0.415473	-523.396505	-424.358727	361.879207
0.064477	-1147.763953	1423.046704	-109.575945	0.285750	0.000000	0.415924	-591.879272	-440.150592	406.636082
0.066404	-1172.864326	1952.795661	-141.232667	0.278325	0.000000	0.417056	-814.424708	-432.746765	543.512247
0.067801	-1056.397557	2317.554892	-130.847180	0.272493	0.000000	0.417481	-967.535843	-374.836418	631.517744
0.068411	-971.719132	2463.780499	-115.790213	0.270201	0.000000	0.417629	-1028.946370	-337.476216	665.715360
0.070338	-622.336805	2889.316795	-38.109666	0.264290	0.000000	0.417974	-1207.658780	-194.455465	763.618131
0.071734	-357.566119	3160.645402	22.754312	0.261177	0.000000	0.418169	-1321.683726	-92.591682	825.488887
0.072344	-294.738804	3271.606889	18.451182	0.259843	0.000000	0.418156	-1368.042904	-64.005718	850.105719
0.074271	-177.399448	3606.442557	11.163395	0.257185	0.000000	0.418138	-1507.992146	-13.257580	927.522237
0.075668	-124.492483	3811.080569	-27.935338	0.256216	0.000000	0.418091	-1593.379422	12.829328	976.459948
0.076278	-64.667840	3884.833222	-124.684178	0.255841	0.000000	0.417742	-1622.856577	45.559549	993.900665
0.078205	33.480709	4053.958027	-154.017711	0.255781	0.000000	0.417578	-1692.842484	90.035192	1036.926401
0.079602	96.713524	4116.410301	-135.423356	0.256304	0.000000	0.417618	-1719.088174	115.859012	1055.052149
0.080212	132.163404	4127.883276	-148.801955	0.256705	0.000000	0.417569	-1723.677550	131.626555	1059.648519
0.082139	229.457114	4106.572126	-146.760147	0.258505	0.000000	0.417586	-1714.845335	171.385556	1061.567410
0.083535	292.683696	4043.764273	-140.520950	0.260342	0.000000	0.417631	-1688.800621	196.107450	1052.759796
0.084145	313.636012	4006.162386	-140.094173	0.261284	0.000000	0.417650	-1673.172916	204.439591	1046.744217
0.086072	363.494064	3854.686703	-137.286314	0.264896	0.000000	0.417735	-1610.239079	223.305412	1021.089923
0.087469	393.127907	3717.316298	-125.585920	0.268238	0.000000	0.417799	-1553.089462	232.202659	997.126562
0.088079	405.857047	3648.467553	-120.889094	0.269851	0.000000	0.417811	-1524.368551	236.139653	984.542598
0.090006	452.664380	3400.769714	-97.397446	0.275605	0.000000	0.417811	-1420.877987	248.703345	937.268925
0.091402	501.012343	3195.563306	-76.859574	0.280459	0.000000	0.417765	-1334.995696	261.673300	896.225561
0.092012	517.314293	3100.628518	-70.030236	0.282707	0.000000	0.417732	-1295.230390	265.042213	876.569477
0.093939	553.362894	2800.748992	-64.149390	0.290245	0.000000	0.417550	-1169.451361	272.412867	812.903135
0.095336	568.356588	2592.350073	-64.526184	0.295803	0.000000	0.417364	-1081.954390	274.167194	766.825899
0.095946	579.887944	2506.887270	-60.331038	0.298107	0.000000	0.417283	-1046.081172	275.876595	747.320037
0.097873	612.288989	2262.883298	-38.765346	0.303930	0.000000	0.416889	-943.370025	279.701617	687.759152
0.099270	618.308247	2100.623327	-23.828016	0.307300	0.000000	0.416750	-875.435191	276.775724	645.522483
0.099880	616.435385	2030.647198	-19.509557	0.308709	0.000000	0.416721	-846.212730	274.179150	626.879066
0.101807	605.494542	1805.766153	-5.441050	0.313563	0.000000	0.416755	-752.561872	262.960556	566.222043
0.103203	592.229114	1640.324662	5.181799	0.317532	0.000000	0.416882	-683.821768	252.151673	520.855544
0.103813	585.204098	1568.075183	10.430287	0.319388	0.000000	0.416962	-653.827441	246.726664	500.823961
0.105740	557.760970	1348.801255	28.583717	0.325287	0.000000	0.417256	-562.795920	227.246142	438.747955
0.107137	533.642487	1201.691172	42.768229	0.329291	0.000000	0.417470	-501.669630	211.416859	395.706583
0.107747	522.168676	1138.146686	48.632094	0.331111	0.000000	0.417565	-475.250414	204.232078	376.852585
0.109674	484.709605	948.166265	67.656577	0.336804	0.000000	0.417884	-396.223955	180.927252	319.346213
0.111070	456.212497	830.169073	80.485566	0.339850	0.000000	0.418027	-347.032792	163.966216	282.132755
0.111680	442.694178	783.842824	85.695229	0.340720	0.000000	0.417970	-327.622947	156.290798	267.071222
0.113607	396.133384	646.303058	99.131255	0.342348	0.000000	0.417409	-269.772731	131.590886	221.260356
0.115004	359.807198	550.721988	105.206659	0.343013	0.000000	0.416846	-229.566262	113.961625	188.904961
0.115614	344.325809	511.719766	107.568789	0.343067	0.000000	0.416619	-213.192103	106.584314	175.554209
0.117541	293.157734	402.795087	107.794579	0.341289	0.000000	0.415983	-167.555919	85.164505	137.469604
0.118938	248.018599	325.977820	100.404778	0.339071	0.000000	0.415296	-135.377268	68.957373	110.529602
0.119548	227.656720	293.001229	96.506473	0.337960	0.000000	0.414954	-121.582073	61.851933	99.022772
0.121475	158.408861	191.821891	78.585474	0.333878	0.000000	0.413487	-79.315831	39.262033	64.045086
0.122871	106.414268	124.388328	60.080576	0.330402	0.000000	0.411897	-51.235130	23.980938	41.098143
0.123481	84.587897	97.524501	50.691622	0.328769	0.000000	0.411020	-40.084548	18.101517	32.063015
0.125408	25.203044	28.632344	19.006391	0.323075	0.000000	0.407196	-11.658984	4.122100	9.250389
0.126805	3.581876	4.337850	3.324276	0.318825	0.000000	0.403142	-1.748768	0.384142	1.383015
0.127415	1.646769	2.063362	1.683141	0.317101	0.000000	0.400999	-0.827406	0.126626	0.654295
0.129342	0.020924	0.035555	0.031898	0.313440	0.000000	0.393212	-0.013981	-0.001771	0.011144
0.130738	0.000251	0.000712	0.000635	0.313698	0.000000	0.387449	-0.000276	-0.000102	0.000223
0.131348	0.000026	0.000112	0.000098	0.314821	0.000000	0.385130	-0.000043	-0.000021	0.000035
0.133275	-0.000000	0.000000	0.000000	0.323136	0.000000	0.380056	-0.000000	-0.000000	0.000000
0.134672	-0.000000	0.000000	0.000000	0.334081	0.000000	0.380378	-0.000000	-0.000000	0.000000
0.135282	-0.000000	0.000000	0.000000	0.339663	0.000000	0.381792	-0.000000	-0.000000	0.000000
0.137209	-0.000000	0.000000	0.000000	0.359338	0.000000	0.387952	-0.000000	-0.000000	0.000000
0.138606	-0.000000	0.000000	-0.000000	NaN	0.000000	NaN	0.000000	0.000000	0.000000
0.139216	-0.000000	0.000000	-0.000000	NaN	0.000000	NaN	0.000000	0.000000	0.000000
0.141143	-0.000000	0.000000	-0.000000	NaN	0.000000	NaN	0.000000	0.000000	0.000000
0.142539	-0.000000	0.000000	-0.000000	NaN	0.000000	NaN	0.000000	0.000000	0.000000
0.143149	-0.000000	0.000000	-0.000000	NaN	0.000000	NaN	0.000000	0.000000	0.000000
0.145076	-0.000000	0.000000	-0.000000	NaN	0.000000	NaN	0.000000	0.000000	0.000000
0.146473	-0.000000	0.000000	-0.000000	NaN	0.000000	NaN	0.000000	0.000000	0.000000
0.147083	-0.000000	0.000000	0.000000	NaN	0.000000	NaN	0.000000	0.000000	0.000000
0.149010	-0.000000	0.000000	0.000000	NaN	0.000000	NaN	0.000000	0.000000	0.000000
0.150407	-0.000000	0.000000	0.000000	NaN	0.000000	NaN	0.000000	0.000000	0.000000
0.151016	-0.000000	0.000000	0.000000	NaN	0.000000	NaN	0.000000	0.000000	0.000000
0.152943	-0.000000	0.000000	0.000000	NaN	0.000000	NaN	0.000000	0.000000	0.000000
0.154340	-0.000000	0.000000	0.000000	NaN	0.000000	NaN	0.000000	0.000000	0.000000
0.154950	-0.000000	0.000000	0.000000	NaN	0.000000	NaN	0.000000	0.000000	0.000000
0.156877	-0.000000	0.000000	0.000000	NaN	0.000000	NaN	0.000000	0.000000	0.000000
0.158274	-0.000000	0.000000	0.000000	NaN	0.000000	NaN	0.000000	0.000000	0.000000
0.158884	-0.000000	0.000000	0.000000	NaN	0.000000	NaN	0.000000	0.000000	0.000000
0.160811	-0.000000	0.000000	-0.000000	NaN	0.000000	NaN	0.000000	0.000000	0.000000
0.162207	-0.000000	0.000000	-0.000000	NaN	0.000000	NaN	0.000000	0.000000	0.000000
0.162817	-0.000000	0.000000	-0.000000	NaN	0.000000	NaN	0.000000	0.000000	0.000000
0.164744	-0.000000	0.000000	-0.000000	NaN	0.000000	NaN	0.000000	0.000000	0.000000
0.166141	-0.000000	0.000000	-0.000000	NaN	0.000000	NaN	0.000000	0.000000	0.000000
0.166751	-0.000000	0.000000	-0.000000	NaN	0.000000	NaN	0.000000	0.000000	0.000000
0.168678	-0.000000	0.000000	-0.000000	NaN	0.000000	NaN	0.000000	0.000000	0.000000
0.170075	-0.000000	0.000000	-0.000000	NaN	0.000000	NaN	0.000000	0.000000	0.000000
0.170684	-0.000000	0.000000	-0.000000	NaN	0.000000	NaN	0.000000	0.000000	0.000000
0.172612	-0.000000	0.000000	-0.000000	NaN	0.000000	NaN	0.000000	0.000000	0.000000
0.174008	-0.000000	0.000000	-0.000000	NaN	0.000000	NaN	0.000000	0.000000	0.000000
0.174618	-0.000000	0.000000	-0.000000	NaN	0.000000	NaN	0.000000	0.000000	0.000000
0.176545	-0.000000	0.000000	-0.000000	NaN	0.000000	NaN	0.000000	0.000000	0.000000
0.177942	-0.000000	0.000000	-0.000000	NaN	0.000000	NaN	0.000000	0.000000	0.000000
0.178552	-0.000000	0.000000	-0.000000	NaN	0.000000	NaN	0.000000	0.000000	0.000000
0.180479	-0.000000	0.000000	-0.000000	NaN	0.000000	NaN	0.000000	0.000000	0.000000
0.181875	-0.000000	0.000000	-0.000000	NaN	0.000000	NaN	0.000000	0.000000	0.000000
0.182485	-0.000000	0.000000	-0.000000	NaN	0.000000	NaN	0.000000	0.000000	0.000000
0.184412	-0.000000	0.000000	-0.000000	NaN	0.000000	NaN	0.000000	0.000000	0.000000
0.185809	-0.000000	0.000000	-0.000000	NaN	0.000000	NaN	0.000000	0.000000	0.000000
0.186419	-0.000000	0.000000	-0.000000	NaN	0.000000	NaN	0.000000	0.000000	0.000000
0.188346	-0.000000	0.000000	-0.000000	NaN	0.000000	NaN	0.000000	0.000000	0.000000
0.189743	-0.000000	0.000000	-0.000000	NaN	0.000000	NaN	0.000000	0.000000	0.000000
0.190352	-0.000000	0.000000	-0.000000	NaN	0.000000	NaN	0.000000	0.000000	0.000000
0.192280	-0.000000	0.000000	-0.000000	NaN	0.000000	NaN	0.000000	0.000000	0.000000
0.193676	-0.000000	0.000000	-0.000000	NaN	0.000000	NaN	0.000000	0.000000	0.000000
0.194286	-0.000000	0.000000	-0.000000	NaN	0.000000	NaN	0.000000	0.000000	0.000000
0.196213	-0.000000	0.000000	-0.000000	NaN	0.000000	NaN	0.000000	0.000000	0.000000
0.197610	-0.000000	0.000000	-0.000000	NaN	0.000000	NaN	0.000000	0.000000	0.000000
0.198220	-0.000000	0.000000	-0.000000	NaN	0.000000	NaN	0.000000	0.000000	0.000000
0.200147	-0.000000	0.000000	-0.000000	NaN	0.000000	NaN	0.000000	0.000000	0.000000
0.201543	-0.000000	0.000000	-0.000000	NaN	0.000000	NaN	0.000000	0.000000	0.000000
0.202153	-0.000000	0.000000	-0.000000	NaN	0.000000	NaN	0.000000	0.000000	0.000000
0.204080	-0.000000	0.000000	-0.000000	NaN	0.000000	NaN	0.000000	0.000000	0.000000
0.205477	-0.000000	0.000000	-0.000000	NaN	0.000000	NaN	0.000000	0.000000	0.000000
0.206087	-0.000000	0.000000	-0.000000	NaN	0.000000	NaN	0.000000	0.000000	0.000000
0.208014	-0.000000	0.000000	-0.000000	NaN	0.000000	NaN	0.000000	0.000000	0.000000
0.209411	-0.000000	0.000000	-0.000000	NaN	0.000000	NaN	0.000000	0.000000	0.000000
